<mxfile host="app.diagrams.net" modified="2022-11-09T06:52:03.371Z" agent="5.0 (Windows NT 10.0; Win64; x64) AppleWebKit/537.36 (KHTML, like Gecko) Chrome/107.0.0.0 Safari/537.36 Edg/107.0.1418.35" etag="BkutWxjxQZ6FcmFi_Awg" version="20.5.3" type="github">
  <diagram id="NPU_aEP58J2ReD9_5BpP" name="第 1 页">
    <mxGraphModel dx="1146" dy="634" grid="1" gridSize="10" guides="1" tooltips="1" connect="1" arrows="1" fold="1" page="1" pageScale="1" pageWidth="827" pageHeight="1169" math="1" shadow="0">
      <root>
        <mxCell id="0" />
        <mxCell id="1" parent="0" />
        <mxCell id="WZ7j747DOy_lru5aS8Ee-1" value="模型参数冗余" style="rounded=0;whiteSpace=wrap;html=1;fillColor=#dae8fc;strokeColor=#6c8ebf;" parent="1" vertex="1">
          <mxGeometry x="130" y="400" width="120" height="60" as="geometry" />
        </mxCell>
        <mxCell id="WZ7j747DOy_lru5aS8Ee-2" value="&lt;font style=&quot;font-size: 13px;&quot; face=&quot;Lucida Console&quot;&gt;&lt;b&gt;问题&lt;/b&gt;&lt;/font&gt;" style="text;html=1;align=center;verticalAlign=middle;resizable=0;points=[];autosize=1;strokeColor=none;fillColor=none;" parent="1" vertex="1">
          <mxGeometry x="160" y="180" width="50" height="30" as="geometry" />
        </mxCell>
        <mxCell id="WZ7j747DOy_lru5aS8Ee-3" value="时空特征挖掘不充分" style="rounded=0;whiteSpace=wrap;html=1;fillColor=#dae8fc;strokeColor=#6c8ebf;" parent="1" vertex="1">
          <mxGeometry x="130" y="287.5" width="120" height="60" as="geometry" />
        </mxCell>
        <mxCell id="WZ7j747DOy_lru5aS8Ee-6" value="研究内容" style="text;html=1;align=center;verticalAlign=middle;resizable=0;points=[];autosize=1;strokeColor=none;fillColor=none;fontSize=13;fontFamily=Lucida Console;" parent="1" vertex="1">
          <mxGeometry x="340" y="180" width="80" height="30" as="geometry" />
        </mxCell>
        <mxCell id="WZ7j747DOy_lru5aS8Ee-8" value="" style="shape=singleArrow;whiteSpace=wrap;html=1;fontFamily=Lucida Console;fontSize=13;fillColor=#1ba1e2;fontColor=#ffffff;strokeColor=#006EAF;" parent="1" vertex="1">
          <mxGeometry x="240" y="185" width="100" height="25" as="geometry" />
        </mxCell>
        <mxCell id="WZ7j747DOy_lru5aS8Ee-10" value="" style="shape=singleArrow;whiteSpace=wrap;html=1;fontFamily=Lucida Console;fontSize=13;fillColor=#1ba1e2;fontColor=#ffffff;strokeColor=#006EAF;" parent="1" vertex="1">
          <mxGeometry x="450" y="185" width="100" height="25" as="geometry" />
        </mxCell>
        <mxCell id="WZ7j747DOy_lru5aS8Ee-11" value="" style="shape=singleArrow;whiteSpace=wrap;html=1;fontFamily=Lucida Console;fontSize=13;fillColor=#1ba1e2;fontColor=#ffffff;strokeColor=#006EAF;" parent="1" vertex="1">
          <mxGeometry x="280" y="301.25" width="40" height="32.5" as="geometry" />
        </mxCell>
        <mxCell id="WZ7j747DOy_lru5aS8Ee-12" value="" style="rounded=0;whiteSpace=wrap;html=1;fontFamily=Lucida Console;fontSize=13;fillColor=#d5e8d4;strokeColor=#82b366;" parent="1" vertex="1">
          <mxGeometry x="420" y="273.75" width="120" height="60" as="geometry" />
        </mxCell>
        <mxCell id="WZ7j747DOy_lru5aS8Ee-13" value="时空特征挖掘" style="rounded=0;whiteSpace=wrap;html=1;fillColor=#dae8fc;strokeColor=#6c8ebf;" parent="1" vertex="1">
          <mxGeometry x="150" y="650" width="110" height="30" as="geometry" />
        </mxCell>
        <mxCell id="WZ7j747DOy_lru5aS8Ee-14" value="&lt;b&gt;关键问题&lt;/b&gt;" style="text;html=1;align=center;verticalAlign=middle;resizable=0;points=[];autosize=1;strokeColor=none;fillColor=none;fontSize=13;fontFamily=Lucida Console;" parent="1" vertex="1">
          <mxGeometry x="160" y="585" width="80" height="30" as="geometry" />
        </mxCell>
        <mxCell id="WZ7j747DOy_lru5aS8Ee-15" value="预测模型压缩" style="rounded=0;whiteSpace=wrap;html=1;fillColor=#dae8fc;strokeColor=#6c8ebf;" parent="1" vertex="1">
          <mxGeometry x="145" y="792.5" width="110" height="30" as="geometry" />
        </mxCell>
        <mxCell id="WZ7j747DOy_lru5aS8Ee-16" value="&lt;b&gt;理论支持&lt;/b&gt;" style="text;html=1;align=center;verticalAlign=middle;resizable=0;points=[];autosize=1;strokeColor=none;fillColor=none;fontSize=13;fontFamily=Lucida Console;" parent="1" vertex="1">
          <mxGeometry x="355" y="585" width="80" height="30" as="geometry" />
        </mxCell>
        <mxCell id="WZ7j747DOy_lru5aS8Ee-18" value="时间卷积神经网络" style="rounded=0;whiteSpace=wrap;html=1;fillColor=#d5e8d4;strokeColor=#82b366;" parent="1" vertex="1">
          <mxGeometry x="340" y="620" width="110" height="30" as="geometry" />
        </mxCell>
        <mxCell id="WZ7j747DOy_lru5aS8Ee-19" value="注意力机制" style="rounded=0;whiteSpace=wrap;html=1;fillColor=#d5e8d4;strokeColor=#82b366;" parent="1" vertex="1">
          <mxGeometry x="340" y="697.5" width="110" height="30" as="geometry" />
        </mxCell>
        <mxCell id="WZ7j747DOy_lru5aS8Ee-20" value="&lt;b&gt;技术创新&lt;/b&gt;" style="text;html=1;align=center;verticalAlign=middle;resizable=0;points=[];autosize=1;strokeColor=none;fillColor=none;fontSize=13;fontFamily=Lucida Console;" parent="1" vertex="1">
          <mxGeometry x="570" y="585" width="80" height="30" as="geometry" />
        </mxCell>
        <mxCell id="WZ7j747DOy_lru5aS8Ee-21" value="" style="shape=singleArrow;whiteSpace=wrap;html=1;fontFamily=Lucida Console;fontSize=13;fillColor=#1ba1e2;fontColor=#ffffff;strokeColor=#006EAF;" parent="1" vertex="1">
          <mxGeometry x="260" y="590" width="75" height="20" as="geometry" />
        </mxCell>
        <mxCell id="WZ7j747DOy_lru5aS8Ee-23" value="" style="shape=singleArrow;whiteSpace=wrap;html=1;fontFamily=Lucida Console;fontSize=13;fillColor=#1ba1e2;fontColor=#ffffff;strokeColor=#006EAF;" parent="1" vertex="1">
          <mxGeometry x="465" y="590" width="75" height="20" as="geometry" />
        </mxCell>
        <mxCell id="WZ7j747DOy_lru5aS8Ee-25" value="张量分解" style="rounded=0;whiteSpace=wrap;html=1;fillColor=#d5e8d4;strokeColor=#82b366;" parent="1" vertex="1">
          <mxGeometry x="340" y="752.5" width="110" height="30" as="geometry" />
        </mxCell>
        <mxCell id="WZ7j747DOy_lru5aS8Ee-26" value="张量缩并" style="rounded=0;whiteSpace=wrap;html=1;fillColor=#d5e8d4;strokeColor=#82b366;" parent="1" vertex="1">
          <mxGeometry x="340" y="792.5" width="110" height="30" as="geometry" />
        </mxCell>
        <mxCell id="WZ7j747DOy_lru5aS8Ee-27" value="因子初始化" style="rounded=0;whiteSpace=wrap;html=1;fillColor=#d5e8d4;strokeColor=#82b366;" parent="1" vertex="1">
          <mxGeometry x="340" y="832.5" width="110" height="30" as="geometry" />
        </mxCell>
        <mxCell id="WZ7j747DOy_lru5aS8Ee-28" value="" style="rounded=0;whiteSpace=wrap;html=1;fontFamily=Lucida Console;fontSize=13;dashed=1;fillColor=none;" parent="1" vertex="1">
          <mxGeometry x="330" y="742.5" width="130" height="130" as="geometry" />
        </mxCell>
        <mxCell id="WZ7j747DOy_lru5aS8Ee-29" value="" style="rounded=0;whiteSpace=wrap;html=1;fontFamily=Lucida Console;fontSize=13;dashed=1;fillColor=none;" parent="1" vertex="1">
          <mxGeometry x="550" y="610" width="115" height="140" as="geometry" />
        </mxCell>
        <mxCell id="WZ7j747DOy_lru5aS8Ee-30" value="" style="shape=singleArrow;whiteSpace=wrap;html=1;fontFamily=Lucida Console;fontSize=13;fillColor=#1ba1e2;fontColor=#ffffff;strokeColor=#006EAF;" parent="1" vertex="1">
          <mxGeometry x="280" y="650" width="30" height="30" as="geometry" />
        </mxCell>
        <mxCell id="WZ7j747DOy_lru5aS8Ee-31" value="" style="shape=singleArrow;whiteSpace=wrap;html=1;fontFamily=Lucida Console;fontSize=13;fillColor=#1ba1e2;fontColor=#ffffff;strokeColor=#006EAF;" parent="1" vertex="1">
          <mxGeometry x="280" y="792.5" width="30" height="30" as="geometry" />
        </mxCell>
        <mxCell id="WZ7j747DOy_lru5aS8Ee-32" value="" style="rounded=0;whiteSpace=wrap;html=1;fontFamily=Lucida Console;fontSize=13;dashed=1;fillColor=none;" parent="1" vertex="1">
          <mxGeometry x="330" y="615" width="130" height="120" as="geometry" />
        </mxCell>
        <mxCell id="uu5v_pjKChr5HiKAVfeQ-1" value="循环神经网络" style="rounded=0;whiteSpace=wrap;html=1;fillColor=#d5e8d4;strokeColor=#82b366;" vertex="1" parent="1">
          <mxGeometry x="340" y="660" width="110" height="30" as="geometry" />
        </mxCell>
        <mxCell id="uu5v_pjKChr5HiKAVfeQ-8" value="" style="shape=singleArrow;whiteSpace=wrap;html=1;fontFamily=Lucida Console;fontSize=13;fillColor=#1ba1e2;fontColor=#ffffff;strokeColor=#006EAF;" vertex="1" parent="1">
          <mxGeometry x="485" y="650" width="30" height="30" as="geometry" />
        </mxCell>
        <mxCell id="uu5v_pjKChr5HiKAVfeQ-9" value="" style="shape=singleArrow;whiteSpace=wrap;html=1;fontFamily=Lucida Console;fontSize=13;fillColor=#1ba1e2;fontColor=#ffffff;strokeColor=#006EAF;" vertex="1" parent="1">
          <mxGeometry x="487.5" y="792.5" width="30" height="30" as="geometry" />
        </mxCell>
        <mxCell id="uu5v_pjKChr5HiKAVfeQ-154" style="edgeStyle=orthogonalEdgeStyle;rounded=0;orthogonalLoop=1;jettySize=auto;html=1;startArrow=none;startFill=0;endArrow=blockThin;endFill=1;" edge="1" parent="1" source="uu5v_pjKChr5HiKAVfeQ-155">
          <mxGeometry relative="1" as="geometry">
            <mxPoint x="211" y="1480" as="targetPoint" />
          </mxGeometry>
        </mxCell>
        <mxCell id="uu5v_pjKChr5HiKAVfeQ-155" value="FNN" style="rounded=1;whiteSpace=wrap;html=1;fillColor=#d5e8d4;strokeColor=#82b366;" vertex="1" parent="1">
          <mxGeometry x="161" y="1560" width="100" height="30" as="geometry" />
        </mxCell>
        <mxCell id="uu5v_pjKChr5HiKAVfeQ-156" value="" style="edgeStyle=orthogonalEdgeStyle;rounded=0;orthogonalLoop=1;jettySize=auto;html=1;" edge="1" parent="1" source="uu5v_pjKChr5HiKAVfeQ-157" target="uu5v_pjKChr5HiKAVfeQ-155">
          <mxGeometry relative="1" as="geometry" />
        </mxCell>
        <mxCell id="uu5v_pjKChr5HiKAVfeQ-157" value="MHA" style="rounded=1;whiteSpace=wrap;html=1;fillColor=#ffe6cc;strokeColor=#d79b00;" vertex="1" parent="1">
          <mxGeometry x="161" y="1680" width="100" height="30" as="geometry" />
        </mxCell>
        <mxCell id="uu5v_pjKChr5HiKAVfeQ-158" value="$$X = (X^{t-P+1},...,X^{t})$$" style="text;html=1;align=center;verticalAlign=middle;resizable=0;points=[];autosize=1;strokeColor=none;fillColor=none;" vertex="1" parent="1">
          <mxGeometry x="126" y="1880" width="170" height="30" as="geometry" />
        </mxCell>
        <mxCell id="uu5v_pjKChr5HiKAVfeQ-159" value="" style="endArrow=blockThin;html=1;rounded=0;endFill=1;" edge="1" parent="1">
          <mxGeometry width="50" height="50" relative="1" as="geometry">
            <mxPoint x="211" y="1880" as="sourcePoint" />
            <mxPoint x="210.57999999999993" y="1860" as="targetPoint" />
          </mxGeometry>
        </mxCell>
        <mxCell id="uu5v_pjKChr5HiKAVfeQ-160" style="edgeStyle=orthogonalEdgeStyle;rounded=0;orthogonalLoop=1;jettySize=auto;html=1;endArrow=classic;endFill=1;" edge="1" parent="1" source="uu5v_pjKChr5HiKAVfeQ-161">
          <mxGeometry relative="1" as="geometry">
            <mxPoint x="211" y="1710" as="targetPoint" />
          </mxGeometry>
        </mxCell>
        <mxCell id="uu5v_pjKChr5HiKAVfeQ-161" value="FC" style="rounded=1;whiteSpace=wrap;html=1;fillColor=#fff2cc;strokeColor=#d6b656;" vertex="1" parent="1">
          <mxGeometry x="161" y="1830" width="100" height="30" as="geometry" />
        </mxCell>
        <mxCell id="uu5v_pjKChr5HiKAVfeQ-162" value="" style="endArrow=classic;html=1;rounded=0;endFill=1;startArrow=classic;startFill=1;" edge="1" parent="1">
          <mxGeometry width="50" height="50" relative="1" as="geometry">
            <mxPoint x="181" y="1710" as="sourcePoint" />
            <mxPoint x="241" y="1710" as="targetPoint" />
            <Array as="points">
              <mxPoint x="181" y="1730" />
              <mxPoint x="241" y="1730" />
            </Array>
          </mxGeometry>
        </mxCell>
        <mxCell id="uu5v_pjKChr5HiKAVfeQ-163" value="" style="endArrow=classic;html=1;rounded=0;entryX=0;entryY=0.5;entryDx=0;entryDy=0;" edge="1" parent="1" target="uu5v_pjKChr5HiKAVfeQ-168">
          <mxGeometry width="50" height="50" relative="1" as="geometry">
            <mxPoint x="211" y="1740" as="sourcePoint" />
            <mxPoint x="161" y="1630" as="targetPoint" />
            <Array as="points">
              <mxPoint x="141" y="1740" />
              <mxPoint x="141" y="1630" />
            </Array>
          </mxGeometry>
        </mxCell>
        <mxCell id="uu5v_pjKChr5HiKAVfeQ-164" style="edgeStyle=orthogonalEdgeStyle;rounded=0;orthogonalLoop=1;jettySize=auto;html=1;startArrow=none;startFill=0;endArrow=blockThin;endFill=1;" edge="1" parent="1">
          <mxGeometry relative="1" as="geometry">
            <mxPoint x="211" y="1815" as="targetPoint" />
            <mxPoint x="161" y="1815" as="sourcePoint" />
          </mxGeometry>
        </mxCell>
        <mxCell id="uu5v_pjKChr5HiKAVfeQ-165" value="Position Encoding" style="text;html=1;align=center;verticalAlign=middle;resizable=0;points=[];autosize=1;strokeColor=none;fillColor=none;" vertex="1" parent="1">
          <mxGeometry x="51" y="1800" width="120" height="30" as="geometry" />
        </mxCell>
        <mxCell id="uu5v_pjKChr5HiKAVfeQ-166" value="Temporal Embeding" style="rounded=1;whiteSpace=wrap;html=1;fillColor=#dae8fc;strokeColor=#6c8ebf;" vertex="1" parent="1">
          <mxGeometry x="181" y="1765" width="60" height="35" as="geometry" />
        </mxCell>
        <mxCell id="uu5v_pjKChr5HiKAVfeQ-167" value="Dropout" style="rounded=1;whiteSpace=wrap;html=1;fillColor=#e1d5e7;strokeColor=#9673a6;" vertex="1" parent="1">
          <mxGeometry x="181" y="1650" width="60" height="25" as="geometry" />
        </mxCell>
        <mxCell id="uu5v_pjKChr5HiKAVfeQ-168" value="Add &amp;amp; Norm" style="rounded=1;whiteSpace=wrap;html=1;fillColor=#e1d5e7;strokeColor=#9673a6;" vertex="1" parent="1">
          <mxGeometry x="171" y="1620" width="80" height="20" as="geometry" />
        </mxCell>
        <mxCell id="uu5v_pjKChr5HiKAVfeQ-169" value="Dropout" style="rounded=1;whiteSpace=wrap;html=1;fillColor=#e1d5e7;strokeColor=#9673a6;" vertex="1" parent="1">
          <mxGeometry x="181" y="1530" width="60" height="25" as="geometry" />
        </mxCell>
        <mxCell id="uu5v_pjKChr5HiKAVfeQ-170" value="Add &amp;amp; Norm" style="rounded=1;whiteSpace=wrap;html=1;fillColor=#e1d5e7;strokeColor=#9673a6;" vertex="1" parent="1">
          <mxGeometry x="171" y="1500" width="80" height="20" as="geometry" />
        </mxCell>
        <mxCell id="uu5v_pjKChr5HiKAVfeQ-171" value="" style="endArrow=classic;html=1;rounded=0;entryX=0;entryY=0.5;entryDx=0;entryDy=0;" edge="1" parent="1" target="uu5v_pjKChr5HiKAVfeQ-170">
          <mxGeometry width="50" height="50" relative="1" as="geometry">
            <mxPoint x="211" y="1610" as="sourcePoint" />
            <mxPoint x="171" y="1500" as="targetPoint" />
            <Array as="points">
              <mxPoint x="141" y="1610" />
              <mxPoint x="141" y="1510" />
            </Array>
          </mxGeometry>
        </mxCell>
        <mxCell id="uu5v_pjKChr5HiKAVfeQ-172" style="edgeStyle=orthogonalEdgeStyle;rounded=0;orthogonalLoop=1;jettySize=auto;html=1;startArrow=none;startFill=0;endArrow=classic;endFill=1;" edge="1" parent="1" source="uu5v_pjKChr5HiKAVfeQ-174">
          <mxGeometry relative="1" as="geometry">
            <mxPoint x="211" y="1430" as="targetPoint" />
          </mxGeometry>
        </mxCell>
        <mxCell id="uu5v_pjKChr5HiKAVfeQ-173" value="" style="edgeStyle=orthogonalEdgeStyle;rounded=0;orthogonalLoop=1;jettySize=auto;html=1;fontSize=20;endArrow=blockThin;endFill=1;" edge="1" parent="1" source="uu5v_pjKChr5HiKAVfeQ-174" target="uu5v_pjKChr5HiKAVfeQ-175">
          <mxGeometry relative="1" as="geometry" />
        </mxCell>
        <mxCell id="uu5v_pjKChr5HiKAVfeQ-174" value="FC" style="rounded=1;whiteSpace=wrap;html=1;fillColor=#fff2cc;strokeColor=#d6b656;" vertex="1" parent="1">
          <mxGeometry x="161" y="1450" width="100" height="30" as="geometry" />
        </mxCell>
        <mxCell id="uu5v_pjKChr5HiKAVfeQ-175" value="$$X = (X^{t+1},...,X^{t+Q})$$" style="text;html=1;align=center;verticalAlign=middle;resizable=0;points=[];autosize=1;strokeColor=none;fillColor=none;" vertex="1" parent="1">
          <mxGeometry x="121" y="1400" width="180" height="30" as="geometry" />
        </mxCell>
        <mxCell id="uu5v_pjKChr5HiKAVfeQ-176" value="" style="rounded=1;whiteSpace=wrap;html=1;fillColor=none;dashed=1;" vertex="1" parent="1">
          <mxGeometry x="121" y="1490" width="170" height="270" as="geometry" />
        </mxCell>
        <mxCell id="uu5v_pjKChr5HiKAVfeQ-177" value="$$×L$$" style="text;html=1;align=center;verticalAlign=middle;resizable=0;points=[];autosize=1;strokeColor=none;fillColor=none;dashed=1;" vertex="1" parent="1">
          <mxGeometry x="241" y="1610" width="60" height="30" as="geometry" />
        </mxCell>
        <mxCell id="uu5v_pjKChr5HiKAVfeQ-178" value="" style="rounded=1;whiteSpace=wrap;html=1;fillColor=none;strokeColor=#6c8ebf;dashed=1;" vertex="1" parent="1">
          <mxGeometry x="769" y="1702.5" width="180" height="117.5" as="geometry" />
        </mxCell>
        <mxCell id="uu5v_pjKChr5HiKAVfeQ-179" value="" style="ellipse;whiteSpace=wrap;html=1;aspect=fixed;fillColor=#7EA6E0;strokeColor=#6c8ebf;" vertex="1" parent="1">
          <mxGeometry x="782" y="1802.5" width="10" height="10" as="geometry" />
        </mxCell>
        <mxCell id="uu5v_pjKChr5HiKAVfeQ-180" value="" style="ellipse;whiteSpace=wrap;html=1;aspect=fixed;fillColor=#7EA6E0;strokeColor=#6c8ebf;" vertex="1" parent="1">
          <mxGeometry x="802" y="1802.5" width="10" height="10" as="geometry" />
        </mxCell>
        <mxCell id="uu5v_pjKChr5HiKAVfeQ-181" value="" style="ellipse;whiteSpace=wrap;html=1;aspect=fixed;fillColor=#FFFFFF;strokeColor=#6c8ebf;" vertex="1" parent="1">
          <mxGeometry x="782" y="1772.5" width="10" height="10" as="geometry" />
        </mxCell>
        <mxCell id="uu5v_pjKChr5HiKAVfeQ-182" value="" style="ellipse;whiteSpace=wrap;html=1;aspect=fixed;fillColor=#B3B3B3;strokeColor=#6c8ebf;" vertex="1" parent="1">
          <mxGeometry x="802" y="1772.5" width="10" height="10" as="geometry" />
        </mxCell>
        <mxCell id="uu5v_pjKChr5HiKAVfeQ-183" value="" style="ellipse;whiteSpace=wrap;html=1;aspect=fixed;fillColor=#FFFFFF;strokeColor=#6c8ebf;" vertex="1" parent="1">
          <mxGeometry x="782" y="1742.5" width="10" height="10" as="geometry" />
        </mxCell>
        <mxCell id="uu5v_pjKChr5HiKAVfeQ-184" value="" style="ellipse;whiteSpace=wrap;html=1;aspect=fixed;fillColor=#FFFFFF;strokeColor=#6c8ebf;" vertex="1" parent="1">
          <mxGeometry x="802" y="1742.5" width="10" height="10" as="geometry" />
        </mxCell>
        <mxCell id="uu5v_pjKChr5HiKAVfeQ-185" value="" style="ellipse;whiteSpace=wrap;html=1;aspect=fixed;fillColor=#FFFFFF;strokeColor=#6c8ebf;" vertex="1" parent="1">
          <mxGeometry x="822" y="1742.5" width="10" height="10" as="geometry" />
        </mxCell>
        <mxCell id="uu5v_pjKChr5HiKAVfeQ-186" value="" style="ellipse;whiteSpace=wrap;html=1;aspect=fixed;fillColor=#B3B3B3;strokeColor=#6c8ebf;" vertex="1" parent="1">
          <mxGeometry x="842" y="1742.5" width="10" height="10" as="geometry" />
        </mxCell>
        <mxCell id="uu5v_pjKChr5HiKAVfeQ-187" value="" style="ellipse;whiteSpace=wrap;html=1;aspect=fixed;fillColor=#FFFFFF;strokeColor=#6c8ebf;" vertex="1" parent="1">
          <mxGeometry x="862" y="1742.5" width="10" height="10" as="geometry" />
        </mxCell>
        <mxCell id="uu5v_pjKChr5HiKAVfeQ-188" value="" style="ellipse;whiteSpace=wrap;html=1;aspect=fixed;fillColor=#FFFFFF;strokeColor=#6c8ebf;" vertex="1" parent="1">
          <mxGeometry x="882" y="1742.5" width="10" height="10" as="geometry" />
        </mxCell>
        <mxCell id="uu5v_pjKChr5HiKAVfeQ-189" value="" style="endArrow=blockThin;html=1;rounded=0;exitX=0.567;exitY=-0.044;exitDx=0;exitDy=0;exitPerimeter=0;endFill=1;entryX=0.34;entryY=1.045;entryDx=0;entryDy=0;entryPerimeter=0;" edge="1" parent="1" source="uu5v_pjKChr5HiKAVfeQ-179" target="uu5v_pjKChr5HiKAVfeQ-182">
          <mxGeometry width="50" height="50" relative="1" as="geometry">
            <mxPoint x="782" y="1802.5" as="sourcePoint" />
            <mxPoint x="802" y="1782.5" as="targetPoint" />
          </mxGeometry>
        </mxCell>
        <mxCell id="uu5v_pjKChr5HiKAVfeQ-190" value="" style="endArrow=blockThin;html=1;rounded=0;endFill=1;" edge="1" parent="1">
          <mxGeometry width="50" height="50" relative="1" as="geometry">
            <mxPoint x="807" y="1802.5" as="sourcePoint" />
            <mxPoint x="806.8600000000001" y="1782.5" as="targetPoint" />
          </mxGeometry>
        </mxCell>
        <mxCell id="uu5v_pjKChr5HiKAVfeQ-191" value="" style="ellipse;whiteSpace=wrap;html=1;aspect=fixed;fillColor=#7EA6E0;strokeColor=#6c8ebf;" vertex="1" parent="1">
          <mxGeometry x="822" y="1802.5" width="10" height="10" as="geometry" />
        </mxCell>
        <mxCell id="uu5v_pjKChr5HiKAVfeQ-192" value="" style="ellipse;whiteSpace=wrap;html=1;aspect=fixed;fillColor=#7EA6E0;strokeColor=#6c8ebf;" vertex="1" parent="1">
          <mxGeometry x="842" y="1802.5" width="10" height="10" as="geometry" />
        </mxCell>
        <mxCell id="uu5v_pjKChr5HiKAVfeQ-193" value="" style="ellipse;whiteSpace=wrap;html=1;aspect=fixed;fillColor=#FFFFFF;strokeColor=#6c8ebf;" vertex="1" parent="1">
          <mxGeometry x="822" y="1772.5" width="10" height="10" as="geometry" />
        </mxCell>
        <mxCell id="uu5v_pjKChr5HiKAVfeQ-194" value="" style="ellipse;whiteSpace=wrap;html=1;aspect=fixed;fillColor=#B3B3B3;strokeColor=#6c8ebf;" vertex="1" parent="1">
          <mxGeometry x="842" y="1772.5" width="10" height="10" as="geometry" />
        </mxCell>
        <mxCell id="uu5v_pjKChr5HiKAVfeQ-195" value="" style="endArrow=blockThin;html=1;rounded=0;exitX=0.567;exitY=-0.044;exitDx=0;exitDy=0;exitPerimeter=0;endFill=1;entryX=0.379;entryY=1.064;entryDx=0;entryDy=0;entryPerimeter=0;" edge="1" parent="1" source="uu5v_pjKChr5HiKAVfeQ-191" target="uu5v_pjKChr5HiKAVfeQ-194">
          <mxGeometry width="50" height="50" relative="1" as="geometry">
            <mxPoint x="822" y="1802.5" as="sourcePoint" />
            <mxPoint x="842" y="1782.5" as="targetPoint" />
          </mxGeometry>
        </mxCell>
        <mxCell id="uu5v_pjKChr5HiKAVfeQ-196" value="" style="endArrow=blockThin;html=1;rounded=0;endFill=1;" edge="1" parent="1">
          <mxGeometry width="50" height="50" relative="1" as="geometry">
            <mxPoint x="847" y="1802.5" as="sourcePoint" />
            <mxPoint x="846.8600000000001" y="1782.5" as="targetPoint" />
          </mxGeometry>
        </mxCell>
        <mxCell id="uu5v_pjKChr5HiKAVfeQ-197" value="" style="ellipse;whiteSpace=wrap;html=1;aspect=fixed;fillColor=#7EA6E0;strokeColor=#6c8ebf;" vertex="1" parent="1">
          <mxGeometry x="862" y="1802.5" width="10" height="10" as="geometry" />
        </mxCell>
        <mxCell id="uu5v_pjKChr5HiKAVfeQ-198" value="" style="ellipse;whiteSpace=wrap;html=1;aspect=fixed;fillColor=#7EA6E0;strokeColor=#6c8ebf;" vertex="1" parent="1">
          <mxGeometry x="882" y="1802.5" width="10" height="10" as="geometry" />
        </mxCell>
        <mxCell id="uu5v_pjKChr5HiKAVfeQ-199" value="" style="ellipse;whiteSpace=wrap;html=1;aspect=fixed;fillColor=#FFFFFF;strokeColor=#6c8ebf;" vertex="1" parent="1">
          <mxGeometry x="862" y="1772.5" width="10" height="10" as="geometry" />
        </mxCell>
        <mxCell id="uu5v_pjKChr5HiKAVfeQ-200" value="" style="ellipse;whiteSpace=wrap;html=1;aspect=fixed;fillColor=#B3B3B3;strokeColor=#6c8ebf;" vertex="1" parent="1">
          <mxGeometry x="882" y="1772.5" width="10" height="10" as="geometry" />
        </mxCell>
        <mxCell id="uu5v_pjKChr5HiKAVfeQ-201" value="" style="endArrow=blockThin;html=1;rounded=0;exitX=0.567;exitY=-0.044;exitDx=0;exitDy=0;exitPerimeter=0;endFill=1;entryX=0.379;entryY=1.025;entryDx=0;entryDy=0;entryPerimeter=0;" edge="1" parent="1" source="uu5v_pjKChr5HiKAVfeQ-197" target="uu5v_pjKChr5HiKAVfeQ-200">
          <mxGeometry width="50" height="50" relative="1" as="geometry">
            <mxPoint x="862" y="1802.5" as="sourcePoint" />
            <mxPoint x="882" y="1782.5" as="targetPoint" />
          </mxGeometry>
        </mxCell>
        <mxCell id="uu5v_pjKChr5HiKAVfeQ-202" value="" style="endArrow=blockThin;html=1;rounded=0;endFill=1;" edge="1" parent="1">
          <mxGeometry width="50" height="50" relative="1" as="geometry">
            <mxPoint x="887" y="1802.5" as="sourcePoint" />
            <mxPoint x="886.8600000000001" y="1782.5" as="targetPoint" />
          </mxGeometry>
        </mxCell>
        <mxCell id="uu5v_pjKChr5HiKAVfeQ-203" value="" style="ellipse;whiteSpace=wrap;html=1;aspect=fixed;fillColor=#7EA6E0;strokeColor=#6c8ebf;" vertex="1" parent="1">
          <mxGeometry x="902" y="1802.5" width="10" height="10" as="geometry" />
        </mxCell>
        <mxCell id="uu5v_pjKChr5HiKAVfeQ-204" value="" style="ellipse;whiteSpace=wrap;html=1;aspect=fixed;fillColor=#7EA6E0;strokeColor=#6c8ebf;" vertex="1" parent="1">
          <mxGeometry x="922" y="1802.5" width="10" height="10" as="geometry" />
        </mxCell>
        <mxCell id="uu5v_pjKChr5HiKAVfeQ-205" value="" style="ellipse;whiteSpace=wrap;html=1;aspect=fixed;fillColor=#FFFFFF;strokeColor=#6c8ebf;" vertex="1" parent="1">
          <mxGeometry x="902" y="1772.5" width="10" height="10" as="geometry" />
        </mxCell>
        <mxCell id="uu5v_pjKChr5HiKAVfeQ-206" value="" style="ellipse;whiteSpace=wrap;html=1;aspect=fixed;fillColor=#B3B3B3;strokeColor=#6c8ebf;" vertex="1" parent="1">
          <mxGeometry x="922" y="1772.5" width="10" height="10" as="geometry" />
        </mxCell>
        <mxCell id="uu5v_pjKChr5HiKAVfeQ-207" value="" style="endArrow=blockThin;html=1;rounded=0;exitX=0.567;exitY=-0.044;exitDx=0;exitDy=0;exitPerimeter=0;endFill=1;entryX=0.34;entryY=1.006;entryDx=0;entryDy=0;entryPerimeter=0;" edge="1" parent="1" source="uu5v_pjKChr5HiKAVfeQ-203" target="uu5v_pjKChr5HiKAVfeQ-206">
          <mxGeometry width="50" height="50" relative="1" as="geometry">
            <mxPoint x="902" y="1802.5" as="sourcePoint" />
            <mxPoint x="922" y="1782.5" as="targetPoint" />
          </mxGeometry>
        </mxCell>
        <mxCell id="uu5v_pjKChr5HiKAVfeQ-208" value="" style="endArrow=blockThin;html=1;rounded=0;endFill=1;" edge="1" parent="1">
          <mxGeometry width="50" height="50" relative="1" as="geometry">
            <mxPoint x="927" y="1802.5" as="sourcePoint" />
            <mxPoint x="926.8600000000001" y="1782.5" as="targetPoint" />
          </mxGeometry>
        </mxCell>
        <mxCell id="uu5v_pjKChr5HiKAVfeQ-209" value="" style="ellipse;whiteSpace=wrap;html=1;aspect=fixed;fillColor=#FFFFFF;strokeColor=#6c8ebf;" vertex="1" parent="1">
          <mxGeometry x="902" y="1742.5" width="10" height="10" as="geometry" />
        </mxCell>
        <mxCell id="uu5v_pjKChr5HiKAVfeQ-210" value="" style="ellipse;whiteSpace=wrap;html=1;aspect=fixed;fillColor=#B3B3B3;strokeColor=#6c8ebf;" vertex="1" parent="1">
          <mxGeometry x="922" y="1742.5" width="10" height="10" as="geometry" />
        </mxCell>
        <mxCell id="uu5v_pjKChr5HiKAVfeQ-211" value="" style="endArrow=blockThin;html=1;rounded=0;exitX=0.567;exitY=-0.044;exitDx=0;exitDy=0;exitPerimeter=0;endFill=1;entryX=0.5;entryY=1;entryDx=0;entryDy=0;" edge="1" parent="1" target="uu5v_pjKChr5HiKAVfeQ-186">
          <mxGeometry width="50" height="50" relative="1" as="geometry">
            <mxPoint x="787.6700000000001" y="1772.5" as="sourcePoint" />
            <mxPoint x="802" y="1752.94" as="targetPoint" />
          </mxGeometry>
        </mxCell>
        <mxCell id="uu5v_pjKChr5HiKAVfeQ-212" value="" style="endArrow=blockThin;html=1;rounded=0;endFill=1;" edge="1" parent="1">
          <mxGeometry width="50" height="50" relative="1" as="geometry">
            <mxPoint x="847" y="1772.5" as="sourcePoint" />
            <mxPoint x="846.8600000000001" y="1752.5" as="targetPoint" />
          </mxGeometry>
        </mxCell>
        <mxCell id="uu5v_pjKChr5HiKAVfeQ-213" value="" style="endArrow=blockThin;html=1;rounded=0;exitX=0.567;exitY=-0.044;exitDx=0;exitDy=0;exitPerimeter=0;endFill=1;entryX=0.5;entryY=1;entryDx=0;entryDy=0;" edge="1" parent="1">
          <mxGeometry width="50" height="50" relative="1" as="geometry">
            <mxPoint x="867.3400000000001" y="1772.5" as="sourcePoint" />
            <mxPoint x="926.6700000000001" y="1752.5" as="targetPoint" />
          </mxGeometry>
        </mxCell>
        <mxCell id="uu5v_pjKChr5HiKAVfeQ-214" value="" style="endArrow=blockThin;html=1;rounded=0;endFill=1;" edge="1" parent="1">
          <mxGeometry width="50" height="50" relative="1" as="geometry">
            <mxPoint x="927" y="1772.5" as="sourcePoint" />
            <mxPoint x="926.8600000000001" y="1752.5" as="targetPoint" />
          </mxGeometry>
        </mxCell>
        <mxCell id="uu5v_pjKChr5HiKAVfeQ-215" value="" style="ellipse;whiteSpace=wrap;html=1;aspect=fixed;fillColor=#B3B3B3;strokeColor=#6c8ebf;" vertex="1" parent="1">
          <mxGeometry x="922" y="1742.5" width="10" height="10" as="geometry" />
        </mxCell>
        <mxCell id="uu5v_pjKChr5HiKAVfeQ-216" value="" style="ellipse;whiteSpace=wrap;html=1;aspect=fixed;fillColor=#B3B3B3;strokeColor=#6c8ebf;" vertex="1" parent="1">
          <mxGeometry x="922" y="1712.5" width="10" height="10" as="geometry" />
        </mxCell>
        <mxCell id="uu5v_pjKChr5HiKAVfeQ-217" value="" style="endArrow=blockThin;html=1;rounded=0;exitX=0.5;exitY=0;exitDx=0;exitDy=0;endFill=1;entryX=0.21;entryY=0.966;entryDx=0;entryDy=0;entryPerimeter=0;" edge="1" parent="1" source="uu5v_pjKChr5HiKAVfeQ-186" target="uu5v_pjKChr5HiKAVfeQ-216">
          <mxGeometry width="50" height="50" relative="1" as="geometry">
            <mxPoint x="842.67" y="1742.5" as="sourcePoint" />
            <mxPoint x="902" y="1722.5" as="targetPoint" />
          </mxGeometry>
        </mxCell>
        <mxCell id="uu5v_pjKChr5HiKAVfeQ-218" value="" style="endArrow=blockThin;html=1;rounded=0;endFill=1;" edge="1" parent="1">
          <mxGeometry width="50" height="50" relative="1" as="geometry">
            <mxPoint x="926.94" y="1742.5" as="sourcePoint" />
            <mxPoint x="926.8000000000002" y="1722.5" as="targetPoint" />
          </mxGeometry>
        </mxCell>
        <mxCell id="uu5v_pjKChr5HiKAVfeQ-219" value="&lt;span style=&quot;color: rgb(0, 0, 0); font-family: Helvetica; font-style: normal; font-variant-ligatures: normal; font-variant-caps: normal; letter-spacing: normal; orphans: 2; text-align: center; text-indent: 0px; text-transform: none; widows: 2; word-spacing: 0px; -webkit-text-stroke-width: 0px; background-color: rgb(248, 249, 250); text-decoration-thickness: initial; text-decoration-style: initial; text-decoration-color: initial; float: none; display: inline !important;&quot;&gt;&lt;font style=&quot;font-size: 16px;&quot;&gt;&lt;b&gt;Temporal Embeding&lt;/b&gt;&lt;/font&gt;&lt;/span&gt;" style="text;whiteSpace=wrap;html=1;" vertex="1" parent="1">
          <mxGeometry x="409" y="1660" width="60" height="45" as="geometry" />
        </mxCell>
        <mxCell id="uu5v_pjKChr5HiKAVfeQ-220" value="&lt;b&gt;Dilated&lt;br&gt;Conv&lt;/b&gt;" style="rounded=1;whiteSpace=wrap;html=1;fontFamily=Helvetica;fontSize=10;strokeColor=#6c8ebf;fillColor=#dae8fc;" vertex="1" parent="1">
          <mxGeometry x="412" y="1750" width="80" height="40" as="geometry" />
        </mxCell>
        <mxCell id="uu5v_pjKChr5HiKAVfeQ-221" style="edgeStyle=orthogonalEdgeStyle;rounded=0;orthogonalLoop=1;jettySize=auto;html=1;entryX=1;entryY=0.5;entryDx=0;entryDy=0;fontFamily=Helvetica;fontSize=19;fontColor=default;strokeWidth=2;" edge="1" parent="1" source="uu5v_pjKChr5HiKAVfeQ-222" target="uu5v_pjKChr5HiKAVfeQ-226">
          <mxGeometry relative="1" as="geometry">
            <Array as="points">
              <mxPoint x="572" y="1720" />
            </Array>
          </mxGeometry>
        </mxCell>
        <mxCell id="uu5v_pjKChr5HiKAVfeQ-222" value="&lt;b&gt;Dilated&lt;br&gt;Conv&lt;/b&gt;" style="rounded=1;whiteSpace=wrap;html=1;fontFamily=Helvetica;fontSize=10;strokeColor=#6c8ebf;fillColor=#dae8fc;" vertex="1" parent="1">
          <mxGeometry x="532" y="1750" width="80" height="40" as="geometry" />
        </mxCell>
        <mxCell id="uu5v_pjKChr5HiKAVfeQ-223" value="" style="endArrow=classic;startArrow=classic;html=1;rounded=0;fontFamily=Helvetica;fontSize=10;fontColor=default;exitX=0.5;exitY=1;exitDx=0;exitDy=0;entryX=0.5;entryY=1;entryDx=0;entryDy=0;strokeWidth=2;" edge="1" parent="1" source="uu5v_pjKChr5HiKAVfeQ-220" target="uu5v_pjKChr5HiKAVfeQ-222">
          <mxGeometry width="50" height="50" relative="1" as="geometry">
            <mxPoint x="452" y="1840" as="sourcePoint" />
            <mxPoint x="612" y="1830" as="targetPoint" />
            <Array as="points">
              <mxPoint x="452" y="1820" />
              <mxPoint x="462" y="1820" />
              <mxPoint x="572" y="1820" />
            </Array>
          </mxGeometry>
        </mxCell>
        <mxCell id="uu5v_pjKChr5HiKAVfeQ-224" value="" style="endArrow=none;html=1;rounded=0;fontFamily=Helvetica;fontSize=10;fontColor=default;strokeWidth=2;" edge="1" parent="1">
          <mxGeometry width="50" height="50" relative="1" as="geometry">
            <mxPoint x="512" y="1870" as="sourcePoint" />
            <mxPoint x="512" y="1820" as="targetPoint" />
          </mxGeometry>
        </mxCell>
        <mxCell id="uu5v_pjKChr5HiKAVfeQ-225" value="" style="endArrow=classic;html=1;rounded=0;fontFamily=Helvetica;fontSize=10;fontColor=default;exitX=0.5;exitY=0;exitDx=0;exitDy=0;strokeWidth=2;" edge="1" parent="1" source="uu5v_pjKChr5HiKAVfeQ-220" target="uu5v_pjKChr5HiKAVfeQ-226">
          <mxGeometry width="50" height="50" relative="1" as="geometry">
            <mxPoint x="452" y="1745" as="sourcePoint" />
            <mxPoint x="502" y="1720" as="targetPoint" />
            <Array as="points">
              <mxPoint x="452" y="1720" />
            </Array>
          </mxGeometry>
        </mxCell>
        <mxCell id="uu5v_pjKChr5HiKAVfeQ-226" value="&lt;font style=&quot;font-size: 19px;&quot;&gt;×&lt;/font&gt;" style="ellipse;whiteSpace=wrap;html=1;aspect=fixed;fontFamily=Helvetica;fontSize=10;strokeColor=#d6b656;fillColor=#fff2cc;" vertex="1" parent="1">
          <mxGeometry x="502" y="1707.5" width="25" height="25" as="geometry" />
        </mxCell>
        <mxCell id="uu5v_pjKChr5HiKAVfeQ-227" value="&lt;span style=&quot;font-size: 11px;&quot;&gt;$$sigmoid$$&lt;/span&gt;" style="text;html=1;align=center;verticalAlign=middle;resizable=0;points=[];autosize=1;strokeColor=none;fillColor=none;fontSize=19;fontFamily=Helvetica;fontColor=default;strokeWidth=2;" vertex="1" parent="1">
          <mxGeometry x="552" y="1707.5" width="90" height="40" as="geometry" />
        </mxCell>
        <mxCell id="uu5v_pjKChr5HiKAVfeQ-228" value="" style="endArrow=classic;html=1;rounded=0;fontFamily=Helvetica;fontSize=19;fontColor=default;strokeWidth=2;" edge="1" parent="1">
          <mxGeometry width="50" height="50" relative="1" as="geometry">
            <mxPoint x="511.79999999999995" y="1707.5" as="sourcePoint" />
            <mxPoint x="511.79999999999995" y="1670" as="targetPoint" />
          </mxGeometry>
        </mxCell>
        <mxCell id="uu5v_pjKChr5HiKAVfeQ-229" value="input" style="text;html=1;align=center;verticalAlign=middle;resizable=0;points=[];autosize=1;strokeColor=none;fillColor=none;fontSize=17;fontFamily=Helvetica;fontColor=default;" vertex="1" parent="1">
          <mxGeometry x="484.5" y="1872.5" width="60" height="30" as="geometry" />
        </mxCell>
        <mxCell id="uu5v_pjKChr5HiKAVfeQ-230" value="&lt;span style=&quot;color: rgb(0, 0, 0); font-family: Helvetica; font-size: 11px; font-style: normal; font-variant-ligatures: normal; font-variant-caps: normal; font-weight: 400; letter-spacing: normal; orphans: 2; text-align: center; text-indent: 0px; text-transform: none; widows: 2; word-spacing: 0px; -webkit-text-stroke-width: 0px; background-color: rgb(248, 249, 250); text-decoration-thickness: initial; text-decoration-style: initial; text-decoration-color: initial; float: none; display: inline !important;&quot;&gt;$$tanh$$&lt;/span&gt;" style="text;whiteSpace=wrap;html=1;fontSize=20;" vertex="1" parent="1">
          <mxGeometry x="412" y="1707.5" width="100" height="50" as="geometry" />
        </mxCell>
        <mxCell id="uu5v_pjKChr5HiKAVfeQ-231" value="&lt;span style=&quot;color: rgb(0, 0, 0); font-family: Helvetica; font-size: 10px; font-style: normal; font-variant-ligatures: normal; font-variant-caps: normal; letter-spacing: normal; orphans: 2; text-align: center; text-indent: 0px; text-transform: none; widows: 2; word-spacing: 0px; -webkit-text-stroke-width: 0px; background-color: rgb(248, 249, 250); text-decoration-thickness: initial; text-decoration-style: initial; text-decoration-color: initial;&quot;&gt;Dilated Conv&lt;/span&gt;" style="text;whiteSpace=wrap;html=1;fontSize=20;" vertex="1" parent="1">
          <mxGeometry x="782" y="1700" width="87" height="40" as="geometry" />
        </mxCell>
        <mxCell id="uu5v_pjKChr5HiKAVfeQ-232" value="" style="rounded=0;whiteSpace=wrap;html=1;fontFamily=Helvetica;fontSize=17;fontColor=default;strokeColor=default;fillColor=none;strokeWidth=2;dashed=1;" vertex="1" parent="1">
          <mxGeometry x="391" y="1660" width="247" height="192.5" as="geometry" />
        </mxCell>
        <mxCell id="uu5v_pjKChr5HiKAVfeQ-233" value="" style="endArrow=none;html=1;rounded=0;fontFamily=Helvetica;fontSize=17;fontColor=default;strokeWidth=1;dashed=1;dashPattern=1 2;entryX=0.997;entryY=0.961;entryDx=0;entryDy=0;entryPerimeter=0;exitX=0.038;exitY=0.002;exitDx=0;exitDy=0;exitPerimeter=0;" edge="1" parent="1" target="uu5v_pjKChr5HiKAVfeQ-232">
          <mxGeometry width="50" height="50" relative="1" as="geometry">
            <mxPoint x="402" y="1660.44" as="sourcePoint" />
            <mxPoint x="643.75" y="1940" as="targetPoint" />
            <Array as="points">
              <mxPoint x="402.5" y="1649.8600000000001" />
              <mxPoint x="649" y="1650" />
              <mxPoint x="649" y="1845" />
            </Array>
          </mxGeometry>
        </mxCell>
        <mxCell id="uu5v_pjKChr5HiKAVfeQ-234" value="" style="endArrow=none;html=1;rounded=0;fontFamily=Helvetica;fontSize=17;fontColor=default;strokeWidth=1;dashed=1;dashPattern=1 2;entryX=0.997;entryY=0.961;entryDx=0;entryDy=0;entryPerimeter=0;exitX=0.038;exitY=0.002;exitDx=0;exitDy=0;exitPerimeter=0;" edge="1" parent="1">
          <mxGeometry width="50" height="50" relative="1" as="geometry">
            <mxPoint x="412" y="1653.0100000000002" as="sourcePoint" />
            <mxPoint x="648.259" y="1837.5625" as="targetPoint" />
            <Array as="points">
              <mxPoint x="412.5" y="1642.43" />
              <mxPoint x="659" y="1642.5700000000002" />
              <mxPoint x="659" y="1837.5700000000002" />
            </Array>
          </mxGeometry>
        </mxCell>
        <mxCell id="uu5v_pjKChr5HiKAVfeQ-235" value="" style="endArrow=none;html=1;rounded=0;fontFamily=Helvetica;fontSize=17;fontColor=default;strokeWidth=1;dashed=1;dashPattern=1 2;entryX=0.997;entryY=0.961;entryDx=0;entryDy=0;entryPerimeter=0;exitX=0.038;exitY=0.002;exitDx=0;exitDy=0;exitPerimeter=0;" edge="1" parent="1">
          <mxGeometry width="50" height="50" relative="1" as="geometry">
            <mxPoint x="422" y="1640.5100000000002" as="sourcePoint" />
            <mxPoint x="658.259" y="1825.0625" as="targetPoint" />
            <Array as="points">
              <mxPoint x="422.5" y="1629.93" />
              <mxPoint x="669" y="1630.0700000000002" />
              <mxPoint x="669" y="1825.0700000000002" />
            </Array>
          </mxGeometry>
        </mxCell>
        <mxCell id="uu5v_pjKChr5HiKAVfeQ-236" value="" style="endArrow=classic;html=1;rounded=0;fontFamily=Helvetica;fontSize=17;fontColor=default;strokeWidth=2;" edge="1" parent="1">
          <mxGeometry width="50" height="50" relative="1" as="geometry">
            <mxPoint x="639" y="1804.6599999999999" as="sourcePoint" />
            <mxPoint x="709" y="1805" as="targetPoint" />
          </mxGeometry>
        </mxCell>
        <mxCell id="uu5v_pjKChr5HiKAVfeQ-237" value="" style="endArrow=classic;html=1;rounded=0;fontFamily=Helvetica;fontSize=17;fontColor=default;strokeWidth=2;" edge="1" parent="1">
          <mxGeometry width="50" height="50" relative="1" as="geometry">
            <mxPoint x="649" y="1790" as="sourcePoint" />
            <mxPoint x="709" y="1790" as="targetPoint" />
          </mxGeometry>
        </mxCell>
        <mxCell id="uu5v_pjKChr5HiKAVfeQ-238" value="" style="endArrow=classic;html=1;rounded=0;fontFamily=Helvetica;fontSize=17;fontColor=default;strokeWidth=2;" edge="1" parent="1">
          <mxGeometry width="50" height="50" relative="1" as="geometry">
            <mxPoint x="659" y="1772.32" as="sourcePoint" />
            <mxPoint x="709" y="1772.1599999999999" as="targetPoint" />
          </mxGeometry>
        </mxCell>
        <mxCell id="uu5v_pjKChr5HiKAVfeQ-239" value="" style="endArrow=classic;html=1;rounded=0;fontFamily=Helvetica;fontSize=17;fontColor=default;strokeWidth=2;" edge="1" parent="1">
          <mxGeometry width="50" height="50" relative="1" as="geometry">
            <mxPoint x="669" y="1755.9099999999999" as="sourcePoint" />
            <mxPoint x="709" y="1755.9099999999999" as="targetPoint" />
          </mxGeometry>
        </mxCell>
        <mxCell id="uu5v_pjKChr5HiKAVfeQ-240" value="" style="endArrow=none;html=1;rounded=0;fontFamily=Helvetica;fontSize=17;fontColor=default;strokeWidth=2;" edge="1" parent="1">
          <mxGeometry width="50" height="50" relative="1" as="geometry">
            <mxPoint x="709" y="1805" as="sourcePoint" />
            <mxPoint x="709" y="1750" as="targetPoint" />
          </mxGeometry>
        </mxCell>
        <mxCell id="uu5v_pjKChr5HiKAVfeQ-241" value="+" style="ellipse;whiteSpace=wrap;html=1;aspect=fixed;fontFamily=Helvetica;fontSize=19;strokeColor=#d6b656;fillColor=#fff2cc;" vertex="1" parent="1">
          <mxGeometry x="709" y="1765" width="20" height="20" as="geometry" />
        </mxCell>
        <mxCell id="uu5v_pjKChr5HiKAVfeQ-242" value="" style="endArrow=classic;html=1;rounded=0;fontSize=20;exitX=0.5;exitY=0;exitDx=0;exitDy=0;entryX=0.5;entryY=1;entryDx=0;entryDy=0;" edge="1" parent="1" source="uu5v_pjKChr5HiKAVfeQ-241" target="uu5v_pjKChr5HiKAVfeQ-243">
          <mxGeometry width="50" height="50" relative="1" as="geometry">
            <mxPoint x="749" y="1770" as="sourcePoint" />
            <mxPoint x="719" y="1730" as="targetPoint" />
          </mxGeometry>
        </mxCell>
        <mxCell id="uu5v_pjKChr5HiKAVfeQ-243" value="FC" style="rounded=1;whiteSpace=wrap;html=1;fillColor=#fff2cc;strokeColor=#d6b656;" vertex="1" parent="1">
          <mxGeometry x="689" y="1707.5" width="60" height="20" as="geometry" />
        </mxCell>
        <mxCell id="uu5v_pjKChr5HiKAVfeQ-244" value="FC" style="rounded=1;whiteSpace=wrap;html=1;fillColor=#fff2cc;strokeColor=#d6b656;" vertex="1" parent="1">
          <mxGeometry x="689" y="1670" width="60" height="20" as="geometry" />
        </mxCell>
        <mxCell id="uu5v_pjKChr5HiKAVfeQ-245" value="" style="endArrow=classic;html=1;rounded=0;fontSize=20;exitX=0.5;exitY=0;exitDx=0;exitDy=0;entryX=0.5;entryY=1;entryDx=0;entryDy=0;" edge="1" parent="1" source="uu5v_pjKChr5HiKAVfeQ-243" target="uu5v_pjKChr5HiKAVfeQ-244">
          <mxGeometry width="50" height="50" relative="1" as="geometry">
            <mxPoint x="779" y="1730" as="sourcePoint" />
            <mxPoint x="829" y="1680" as="targetPoint" />
          </mxGeometry>
        </mxCell>
        <mxCell id="uu5v_pjKChr5HiKAVfeQ-246" value="" style="endArrow=classic;html=1;rounded=0;fontSize=20;exitX=0.5;exitY=0;exitDx=0;exitDy=0;entryX=0.5;entryY=1;entryDx=0;entryDy=0;" edge="1" parent="1">
          <mxGeometry width="50" height="50" relative="1" as="geometry">
            <mxPoint x="718.8299999999999" y="1670" as="sourcePoint" />
            <mxPoint x="718.8299999999999" y="1652.5" as="targetPoint" />
          </mxGeometry>
        </mxCell>
        <mxCell id="uu5v_pjKChr5HiKAVfeQ-247" value="output" style="text;html=1;align=center;verticalAlign=middle;resizable=0;points=[];autosize=1;strokeColor=none;fillColor=none;fontSize=20;" vertex="1" parent="1">
          <mxGeometry x="669" y="1600" width="80" height="40" as="geometry" />
        </mxCell>
        <mxCell id="uu5v_pjKChr5HiKAVfeQ-251" value="" style="shape=image;verticalLabelPosition=bottom;labelBackgroundColor=default;verticalAlign=top;aspect=fixed;imageAspect=0;image=data:image/png,iVBORw0KGgoAAAANSUhEUgAAAPAAAAFnCAYAAACYQcTdAAAgAElEQVR4nO3de1iUdfo/8PeAQpDHcARJRm3VNEhUyq9kWUppgHzXyXI1zXJTtCA8IKBl27V9PYELBomrqD9bW9bKaxuMhNzCQx7XGhUDtTDFwTg4giiGIof5/TEHZnAGhpmBz+eZ535d11zCzHO4eeSe+/PczPN8JBqNRgMiShKJBPTfL2wurAMghNiOEpgQAZPQENp2N8tOoKpkP+7cKoamqYF1OKIhcekCjx4D8ZDfRPTsN5Z1OExRAtuo/OfP8HvlT5D2D0K3XjJIXLqwDkk0NE0NuF2tgvqqEg96PQ6fR2ewDokZSmAb3Cw7geuXszEoQE6Jy5CmqQGXCxToMyhCtJWYzoFtUFWyH9L+QZS8jElcukDaPwhVJftZh8IMJbAN7twqRrdeMtZhEADdeslw51Yx6zCYoQS2gaapgaovJyQuXUTdQKQEJkTAKIEJETBKYEIEjBKYEAGjBHZqZ7G6+yi4tHzMyUW5pWVMXiO8o1aqCPzf/tN470lzr5zF6u6v4/T/+w5Nr3gBAMp3L4PvHKB0Zyh8OjVKYguqwCJWvnsn3pevwUZd8gKAzysr8E+8i+0/MAyMWI0qsGhVYn92Hl6KWNGi0nrh1Z2nGcVE2osqsAi8P9H4HHgbjhu9Nmqgl8X1CP+oAouA5XNg4HRxJfAkJbFQUQUWLS9MjAjBl9kn7+s6H08chdV0DiwIlMAi5vPKHPyf4l1E7640PFe+exnGrYrCRAsVm/CFhtCiNgLv1fwDq7s/D5c/65+LwtGaeQhmGRaxGiWwUxuB92ra6ihrl3mvU+IhjkZDaEIEjBKYEAGjBCZEwCiBCREwSmBCBIwSmBABowS2gdhvpMYTsd9gkBLYBh49BuJ2tYp1GATA7WoVPHoMZB0GM5TANnjIbyLUV5VUhRnTNDVAfVWJh/wmsg6FGZpaxUY0NxI7NDdSM0pgO9DshGzQ7ITNKIFFSq1WY+rUqcjKyoJUKmUdDrERnQOL1KFDh3Dy5EkcOnSIdSjEDpTAIvXpp5+ioaEBn376KetQiB1oCC1CjY2N8PT0xL179+Dm5oba2lq4urqyDovYgCqwCCkUCnh6egIAPD09oVAoGEdEbEUJLEKffvopqqurAQDV1dU0jBYwGkKLjPHwWY+G0cJFFVhksrKyoNFo0K1bN7i7u6Nbt27QaDTIyspiHRqxAVVgEbpy5QoAYODAgSguLgYADBgwgGVIxEZOn8D79+/Hzz//jOrqaqxYsQIAUFxcjOXLl+Pzzz83LGd8GCQSiSiel0gkhn95iMeRz9++fRuzZs2Cp6cn+vbti9TUVDgjp07gmpoazJs3D35+fhg6dChmzJiBHj163PdLK1b6BHZWN2/eRFVVFaqqqhAUFAQAOHv2LD788EP4+/vj+eefxzPPPMM4Svs4VQLv3r0b3377LRITE9G7d2/W4XDP2RPYkrNnz2LPnj2oqalBUlIS63Ds4jQJ/O6776KiogLh4eF46aWXWIcjCGJNYHOys7Nx9+5dvPLKK6xDaRenuQbujTfewNChQ1mHQQSquroaX331Fc6cOYPVq1ezDsdqgv0zklKpRHx8vOF7Sl5ij9deew07duyAh4cHfv/9d9bhWE2QQ+js7Gxs374dzz//PKKjo1mHI1g0hG5dXV0d3N3dWYfRKkFW4MuXL2PatGmUvKRDLVu2DJmZmazDaJUgKzBxDKrArfvuu++QmpqKOXPmcNvcEkwT68yZMygvL8eLL77IOhQiEs8//zwqKipQUlLCOhSLBFOBX3/9dTz33HOYO3cu61Da5cKJi8g/cA431bdYhyIYPaU9EDjhMQwbO5h1KNwTRAV+//330adPH0Em75m8QjwWPBS9vXuxDkcwblRU40xeIQBwlcRKpdLwiS5eCKKJNXv2bKxatYp1GO2Wf+AcJa8Nenv3wmPBQ5F/4BzrUAzu3r2L1atXY9++faxDMSGIBH700Ufh4eHBOox2u6m+Rclro97evbg67XjggQcQERGB3bt3sw7FBNcJfPjwYZSXl7MOgxAAwNy5c9GnTx9cvHiRdSgGXCfw9u3b8f3337MOo+Plp0IWMA9ZFa0tpMTHAb74ON/S+qlQWlpzsy9kAb6tLtO8XItlKhRY0MZ6YrJu3ToMHszPeTm3CXzkyBHU1dVh+vTprEOxKDk5GTU1NXZu5Rqydv6EuGggV3nNIXGZyE+FvCgdyoJSKJN+gnxzW6mYiIycDoiDdAhuExgAIiIiWIfQqpUrV8LLywsrVqywPZErjiIX4ZghDwfid7WodNeQFaurnpuPtFhPgQUB2tc+Pm7jD2BGaHQCEP+u5dGA0X5NqnV+KmSx87SvxSqgzk+FLFaBLOPqb7TuAgG/SeTl5SEjI4N1GAA4TuCnn34ar776KuswWrVu3Tq4uroiJSUFUqnUpkRWK/cCIeMg9ZYjMjoRx4yGyMrNIxEDbfVUBQPrm1/BxyFRQNIZqApK8RQSLe8gcCbSEIWVsfMQFP84FAvb+DOIbCZWJQExCnOV2nS/iuhEyGMVUOtf3geE5pVClSyHFAD2RaEkuBSqgjNIm5wIeYgKkQWlUGUmIPe+NyvhkEql2L9/P+swAHCcwEKwaNEiwx0e6+rqbEjkaziaB4QG9QUABAUnYP1xpeG1kiIgbo4uGQJnIm2y7qUKFQqQgMgw3XrydIRa2kXFUeTuA3L35SAucxGs+SumNOwtxG2MuP9829x+9+3FUUO1fhx+3sYrJOCpQADoC78hQGjSTO3+fWSW4xWAESNGQCKR4IcffmAdCp8J/PXXXyMvL89h25swYQIkEkmHPKqqqgz70SdycnKydR86qTiK3H05iAnRDTNnJQIbj+gqUwlKLP3JsVyFXGt+8AoFFhhVvfWz5iGrQomP22yYBeGdzASs32lUXc3t11uGAOPvJ8sga+17J/LGG28Ybo7PEpcJfPDgQfz0008O3Z5Go+mQh5eXl2E/bm5ucHd3R2xsLHbs2NFmXEpFFHKjs6EqKDU8FNH6JpIf/CZbWNHKCqZW7kVu9NPaqhe4CMokICYkAuuj38JU7zZW1g+9FSrL+61QocCKOJzR5MmT4e/vzzoMPhP45s2bGD58OOsw2pSamora2lpD4i5duhRqtRpr165F9+7d21hbiWMbgbhg00GtTBaG3LyjUKMvxoWENVfB/F2I0Vdk73EIndzcLVYqosxWZGlQOEINFR2QPvy49osilWllNasvpsanAxsTm7ftLUMAWux3cjjGtfVmQDoMlwk8ZswYPPHEE6zDaNPy5cvR0NDQzsTVyT+C9YZzxGbSoHCE7ovCZ/mANGwN0hCFoABfyHbKkGa4/FmXXPEjIQvwRYYsHXHm9uEtx5ZMQK7vGs8CFAWlUAyJwkprusDecqxKCjN6Igjv5DXvV74xAQp9w0pk1Go13n//fdZhCOdqJHt01HWvycnJiIyMtJi0GUv/idA3Qxy+X7HI3Z6HyJTZrMMwq7q6GnPmzMFXX33FNA5BXI3Eq9jYWNYhEEZ69uzJxc0QuBxCz58/n3UIhLRKIpHggw8+YB0Gnwm8bds21iEQ0iYe+jRcJrCz6CntgRsV1azDEKQbFdXoKe3BOgzucZnAW7duZR2CQwROeAznjv9CSdxONyqqce74Lwic8BjrUFr15JNPsg6ButAdje6J1X5CuScWD3f1pAQWMTou9uHh+HE5hKYuNBECHi5m4LICO/qdjYd3Sh7RcRE+LiswIcQ6XCaws3ShiXOjLnQnoaGieXRc7MPD8eOyAhNCrMNlAlMXmggBdaEtoC5056DjInyUwJyovXUHJ/eewZWCEtTducc6HIdz93DDgAA/jAkfCc8ewpsmh1dcXg8sti507a072JO2D94DpBg3dQzcPd1Zh+RwdbV1UF34DXvS9uGPMZOdIomffPJJ5sNoLiuwo/FegQ/uOo6mhiYMGf0I61A6XNGpS3Dp4oLnZgazDsVuPPxecdnEEpsrBSWQDXuYdRidQjbsYVwp4HfGe6HhMoHF1oWuu3PPKYfN5rh7ujvNOT7r4TPAaQLTHTmIENAdOQghduEygcXWhSbCxMNnoblM4Hnz5rEOgT8m03rqH23NcdRZrJlvyfn8+OOPrEPgM4GJJWFIy2ueR0mV+ThiQsSXOKQZlwksti60zQIXQRGdo5vLVzsZ+ILYedpJv/MBkwnCDc9BV81TkZUzz3wlz09trvKG+X+122qeclRfda8hKzYC65EjujcT6kJbQF1o6wUFJ5hMVpY75C2oCkrxTmCLCcIN04vq10xEjEq7rDIJiEnSJWqFAgtmJSIuUzcxN6IQtLm1qbj7YmpyNuIQhrS8bW3PeuhEqAtNHC5U5qf7ytwE4TnIVeonNQtDmlw7M6I07C3E6SfqLlchd3I6Zugm5p46J8FozmLCGy4TmLrQ1lP/ZjqPcsDDfXVftZwgvC/8hhh//zj8zFTLltuzdi5iMaIutAXUhbaeSpUDDJGZmeKz5QTh2orc7CeU6IfTRhN1G+YQ1itXmZ17WMyTe+tRF5rYJz8V8o3NQ2FT2oprOkF4GEKD9BW6eTitVu5tnqjbR2aYnxi4hqydiUD009DvYf1xZfM6HfmzEatweTnh/PnzaRhtVg5iQnwRY/i+9cZR0MIzSIsdiaCAKABAXGapdtkKAEhAgGokZAHarxUFunNlbzm2ZKogm+WL9QAwOR3Khdr0nRqfjtyQCMg2AqFJ6YjDXt2e/OA3WduFhogaWTx0obm8nFBsF/R3+kTgFQosCFEhsmARzNXujsbzxN1CQ0NoQgSMyyE0DZ87mLccW8TegXIAHu7IwWUFpi40EQLqQhNC7MJlAovts9DuHm6oq61jHUanqKutg7uHG+swHIL18BmgLjQX6KZ2xFZcVmCxGRM+EhVX1Cg6dclpK3FdbR2KTl1CxRU1xoSPZB2O0+CyAm/bts2hjSzeKzBAN3YXIh660FwmsKMJIYFZoONiHx6OHw2hCREwLhNYbF1oIkysh88Ap0NosXWhWaHjInyUwHY4W6rEiSvfo/SmCo1NjQ7fPjHP1cUVvj1lGDtgPEb4srgcgx/0WWgb5Z5X4Bf1OQz3GYWxg0Lg6sLloXRKjU0NKL91FQcufoPfbqoQOlzOJA7qQncSR1fgs6VKHLj4DSYMjaDEZaixqQEHfsnGhMEvMqnEPJyCcNnE4t2JK99juM8oSl7GXF26YLjPKJy48j3rUJjhMoF570KX3lTBp0d/1mEQAD49+qP0porJvlkPnwFOE5j3+0I3NjVS9eWEq0sXZg1Eui80IcQuXCawELrQhNB9oS2gO3IQIaA7chBC7MJlAvPeheZW6V4s9vZHQMtHyhkAZ5Bh+LrZdcXi5ud06y9WXDdZJj/l/ucIdaEt4r0LzbcXkHi6EAUVRo+lRhfQJ36CvaWtb+G7hf9GfuuLEFAXmnS6FxCTACR8sBeW62kMYhLSMKtFpSZ84jKBqQvdcR6esRKJiMeXrcwX+j9LMxFjRaUWO+pCW0BdaHt8i4RRRue/81tW2z4IXxiDtLAtrQyTR+KlzW1VasJDF5o+TuR0XkDi6Y8Q7tvKIkELkJngjx2KaVhpYZE+8pVIzHkWXyrD8T8dESZxCC4rMHWhO17gjCRg4Sp8ednSEs2V+r+dGZiAUBfaAupCdwLfcKzcDKQlfmt5maAFyExIQ1pi54UlJNSFJkz1ka9E4v+2vkzg0kyj+YgJb7g8B6YutI18w/FRRbiFF0cisuKjFs/1QfjWQhjW8A3HRxXm1it0ZJROg4c7cnBZgakLTYSAhy40lwlMCLEOlwlMXWgiBKyHzwCnCUxdaCIE1IUmhNiFywSmLjQRAvostAW8d6FdXVzR2NTAOgwC7b2hXV1cmeybutAC5dtThvJbV1mHQQCU37oK354y1mEww2UC896FHjtgPM6Xn6YqzFhjUwPOl5/G2AHjmeyfhy40l1OrCGFyM+O5kXx69Kf7RHci/dxI58tPY6j0MWZzI/GAEtgONDshGzQ7YTMuy4ZQutAjfIME+wtUU1ODuXPnYseOHejevTvrcASJPgttAe9daGewZs0afPXVV1izZg3rUASLhy40l0NoR+NhGkie1NTUQCqVoq6uDu7u7lCr1VSFbcDD7xWXFZj3LrTQrVmzxvCLp9FoqArbiPXwGeC0AguliSVExtVXj6qwcHFZgUnHMa6+elSFhYvLCrxt2zaHNrKoAmvV1NTAy8sLrq6u8PT0RFVVFby8vFBbW4uGhgZUVlZSFW4H6kJbQF3ojpGRkQFXV1esW7cOlZWVAIDr169j7dq1cHV1RUZGBuMIhYW60J2EKrB5dFzsw8Px47ICUxeaCAHr4TPAaQWmLnTnoOMifFxWYEKIdbhMYKF8FpqIGw935OByCO1oNFQ0j46LfXg4flxWYEKIdbhMYOpCEyGgLrQF1IXuHHRchI/LCkwIsQ6XCUxdaCIE1IXuJBMmTMDBgwdZh8ElEfz3dxgeTkFEkcDEPB5+AYWMh+PH5RCautBECKgLbQEP72xiQMdZ+LiswIQQ63CZwNSFJkJAXWjCFA2h7cPD8eOyAhNCrMNlAlMXmggBdaEt4GFoIgZiP8719fXQaDTQaDRwcXGBRqOBm5sb67DahRK4g104cRH5B87hpvoW61AEo6e0BwInPIZhYwd32D6amprg6uoKABg/fjyGDh0KqVQquPtj0+yEHejCiYs4k1eIx4KHord3L9bhCMaNimqcySsEgA5LYhcXF9TV1cHPzw/jx4/HX//613Zvg+4LbYGz3Bc6/8A5Sl4b9PbuhceChyL/wDmr19FoNFi5ciUaG03naW5sbMTOnTvR0NBw3zpHjhzBtWvXMGXKFLi4uMDFpX3pwMN9oblMYGdxU32LktdGvb17teu0QyKRQCaToUuXLrh79y4A4N69e/Dz88P58+fNrnP48GH06tULo0aNckjMLHCZwNSFJraYP38+du7cCQ8PD9y9exfu7u4IDQ3F6tWr0aWL6dliQ0MDjhw5ghEjRkAikdi0P9bDZ4DTBN62bRvrEDpXfipkAfOQVdHaQkp8HOCLj/MtrZ8KpaU1N/tCFuDb6jLNy7VYpkKBBW2sxwuJRILXXnsN//jHP+Dh4YE//vGP2Lp1q9mhsVqtxrFjxzBx4kR07drV8HxVVRW++eYbq5qoTzzxhEPjtwWXCSwUycnJqKmpsXMr15C18yfERQO5ymsOictEfirkRelQFpRCmfQT5JvbSsVEZOR0QByd5O7du3j99dexYcMG7NmzB/X19WaXO3ToEGpra02Gz01NTZg6dSq8vb1trsqdjcsEFkoXeuXKlfDy8sKKFStsT+SKo8hFOGbIw4H4XS0q3TVkxeqq5+YjLdZTYEGA9rWPj9v4A5gRGp0AxL9reTRgtF+Tap2fClnsPO1rsQqo81Mhi1Ugy7j6G627oAPeJPRd5b1792Lx4sXIzs7GgAEDcPbsWZPlmpqacOjQIQwePBgvvPACNBoN6uvrsX37djzwwAPw9/e3an88fBaaywQWShd63bp1cHV1RUpKCqRSqU2JrFbuBULGQeotR2R0Io4ZDZGVm0ciBtrqqQoG1je/go9DooCkM1AVlOIpJFreQeBMpCEKK2PnISj+cSgWBrUekGwmViUBMQpzldp0v4roRMhjFVDrX94HhOaVQpUshxQA9kWhJLgUqoIzSJucCHmICpEFpVBlJiD3vjcr+xQWFmL06NHIzMxEWFgYAGDKlCkoLCxEYGCgoQudk5MDHx8fnDt3Dr6+vli2bBnGjh2L/v37IzIyEi+//LLVH+agLrTALVq0CJ6enrh37x7q6upsSORrOJoHhAb1BQAEBSdg/XGl4bWSIiBuji4ZAmcibbLupQoVCpCAyDDdevJ0hFraRcVR5O4DcvflIC5zEdpIXwCANOwtxG2MuP9829x+9+3FUUO1fhx+3sYrJOCpQADoC78hQGjSTO3+fWSW47WRv78/CgsLMWnSJJPnvby80NjYaGhiTZo0CVevXsW3336Lb7/9FuvXr8ehQ4egUqlQV1cnuAYqlwns6IM4YcIESCSSDnlUVVUZ9qNP5OTkZMydO7ftwCqOIndfDmJCdMPMWYnAxiO6ylSCkn0W1itXIdeaH7xCgQVGVW/9rHnIqlDi4zYbZkF4JzMB63caVVdz+/WWIcD4+8kyyFr7nhHjJlaXLl3g5uZmeHh6euKBBx6Au7s73Nzc2nXuS11oCxzdhT548KDhM6+Ofnh5eRn24+bmBnd3d8TGxmLHjh1txqVURCE3OhuqglLDQxGtbyL5wW+yhRWtrGBq5V7kRj+trXqBi6BMAmJCIrA++i1M9W5jZf3QW6GyvN8KFQqsiMNZURda4FJTU1FbW2tI3KVLl0KtVmPt2rXo3r17G2srcWwjEBdsOqiVycKQm3cUavTFuJCw5iqYvwsx+orsPQ6hk5u7xUpFlNmKLA0KR6ihogPShx/XflGkMq2sZvXF1Ph0YGNi87a9ZQhAi/1ODse4tt4MSIfhMoGF0oVevnw5Ghoa2pm4OvlHsN5wjthMGhSO0H1R+CwfkIatQRqiEBTgC9lOGdKi9Uvpkit+JGQBvsiQpSPO3D685diSCcj1XeNZgKKgFIohUVhpTRfYW45VSWFGTwThnbzm/co3JkChb1iJEA9daC6vRnK0jrq6KTk5GZGRkRaTNmPpPxH6ZojD9ysWudvzEJkym3UYFvFw1RyXVyMJRWxsLOsQiMhxOYQWWiufiBN1oS0Q3WehiSBRF9rJ9ZT2wI2KatZhCNKNimr0lPZgHQb3uExgoXSh2xI44TGcO/4LJXE73aioxrnjvyBwwmOsQ2kVdaE7CctuId0Tq/06455YjsBDF5oSWMTouNiHh+PH5RCautBECHjoQnNZgR39zsbDOyWP6LgIH5cVmBBiHS4T2Fm60MS5URe6k9BQ0Tw6Lvbh4fhxWYEJIdbhMoGpC02EgLrQFlAXunPQcRE+SmBO1N66g5N7z+BKQQnq7txjHY7DuXu4YUCAH8aEj4RnDw/W4TgNLq8HFlsXuvbWHexJ2wfvAVKMmzoG7p7urENyuLraOqgu/IY9afvwx5jJTpHEPMxOyGUFdjTeK/DBXcfR1NCEIaMfYR1Khys6dQkuXVzw3Mxg1qHYjYffKy6bWGJzpaAEsmEPsw6jU8iGPYwrBSWsw3AaXCaw2LrQdXfuOeWw2Rx3T3enOcdnPXwGOE1guiMHEQK6IwchxC5cJrDYutBEmHj4LDSXCSyU2Qk7lcm0nvpHW3McdRZr5ltyPjQ7IWmnMKTlNc+jpMp8HDEh4ksc0ozLBBZbF9pmgYugiM7RzeWrnQx8Qew87aTf+YDJBOGG56Cr5qnIyplnvpLnpzZXecP8v9ptNU85qq+615AVG4H1yBHdmwl1oS2gLrT1goITTCYryx3yFlQFpXgnsMUE4YbpRfVrJiJGpV1WmQTEJOkStUKBBbMSEZepm5gbUQja3NpU3H0xNTkbcQhDWt62tmc9dCLUhSYOFyrz031lboLwHOQq9ZOahSFNrp0ZURr2FuL0E3WXq5A7OR0zdBNzT52TYDRnMeENlwlMXWjrqX/7yeT7gIf76r5qOUF4X/gNMf7+cfiZqZYtt2ftXMRiRF1oC6gLbT2VKgcYIjMzxWfLCcK1FbnZTyjRD6eNJuo2zCGsV64yO/ew2Cf3BqgLTeyVnwr5xuahsCltxTWdIDwMoUH6Ct08nFYr9zZP1O0jM8xPDFxD1s5EIPpp6Pew/riyeZ2O/NmIVbi8nHD+/Pk0jDYrBzEhvogxfN964yho4RmkxY5EUEAUACAus1S7bAUAJCBANRKyAO3XigLdubK3HFsyVZDN8sV6AJicDuVCbfpOjU9HbkgEZBuB0KR0xGGvbk9+8Jus7UJDRI0sHrrQXF5OKLYL+jt9IvAKBRaEqBBZsAjmandH433ibiGhITQhAsblEJqGzx3MW44tYu9AOQAPd+TgsgJTF5oIAXWhCSF24TKBxfZZaHcPN9TV1rEOo1PU1dbB3cONdRgOwXr4DFAXmgt0UztiKy4rsNiMCR+JiitqFJ265LSVuK62DkWnLqHiihpjwkeyDsdpcFmBt23b5tBGFu8VGKAbuwsRD11oLhPY0YSQwCzQcbEPD8ePhtCECBiXCSy2LjQRJtbDZ4DTIbTYutCs0HERPkpgO9y6lIMb5z/DneuF0DTVO3z7xDyJS1d49PFH7+Ez0OORMNbhMEWfhbZRxcm/ofa3o+jzhynoNjIKElfn+HCCEGga7+F2ZQGu52/Fnevn4D1mGZM4qAvdSRxdgW9dykFl/lYMHLOcEpchTeM9FJ9cB6/A+UwqMQ+nIFw2sXh34/xn6POHKZS8jElc3dDnD1Nw4/xnrENhhssE5r0Lfed6Ibp5BbAOgwDo5hWAO9cLmeyb9fAZ4DSBeb8vtKapnqovJySubswaiHRfaEKIXbhMYCF0oQmh+0JbQHfkIEJAd+QghNiFywTmvQvNJeV2SPqNhmTD2RYvnMXqfqMh6bcdxwGgLBfT+i3Dv8pMlzq+YTSmKSrNbPP+ZYkWdaEt4L0Lza2IiXgp6Qdtouopf8DKiIl4qd0bq8S/tpzHqnjg3ycq215chKgLTRwsBNPi07HfaCrB49+nY1WoDTeNLzuJfyMEb84IAd7OMn1TINzgMoGpC227QQMnYuX3+mH0WexPisLEse3fTvmJPCB0DHz6hWJZizcFokVdaAuoC227QWNDmofRyh+wMv5J3H/7uP2YNXq09pxZ93gqyfj1SuzPBaaN9QIABI+PMnpTIHrUhSaO128MpkWcx+Uy7fD5pYEPm1loIjJPnYKmrPlxLN7o5bKT+He2UZJPSQdanlsTLnCZwNSFtocXJoYC/z6Ri/1JEw1VtD2Of/Yevoz/pEWCp+NvLbvUIkddaAuoC20fH9lwfPn2exbbKyoAAAvTSURBVFgZEYKJ/dq79lnsTwJWjR9h8uyggRPxZe5JlDssSuGjLjTpGEFPYhWAl0LHwKe96yp/wEpEYWKLeUd9xobgpez3sJ2aWVzh8oJ+3u8LfX7HCAwP/YfDtkfscz73dQyf2/lNNh7uyMFlBaYuNBEC6kITQuzCZQJTF5oIAevhM8BpAlMXmggBdaEJIXbhMoHps9BECOiz0Bbw3oWWuHSFptH5pgAVIk3jPUhcujLZN3WhBcqjjz9uVxawDoMAuF1ZAI8+/qzDYIbLBOa9C917+Axc//VrqsKMaRrv4fqvX6P38BlM9s9DF5rLT2IJYXIzk7mRvALoPtGdyDA30q9fw/PhcczmRuIBJbAdaHZCNmh2QiMaDm3dutWh2+P0x9RoNBrNrVu3NNOmTdPcunWL9iswTzzxBOsQNPz+ZjsQzwm8fPlyTdeuXTXLly+n/QoMD79XXA6hHY2HaSDNqampgVQqRV1dHdzd3aFWq9G9e3far0Dw8HtFXWiG1qxZY/gF0Gg0WLNmDe1XQKgLbYFQmlj2MK5Gep1RlcS2X2fHZQUWA+NqpNcZVUls+3V2XFZg3u/IYa+amhp4eXnB1dUVnp6eqKqqgpeXF2pra9HQ0IDKysoOqUpi229HoztyWMD7Z6HtlZGRAVdXV6xbtw6Vldo7PV6/fh1r166Fq6srMjIyaL8CwMNnobmswI7GWwVuiVV8Ytuvo/Hwc3BZgcXShSbCxnr4DHBagcXQhTYmtkrI+/+HkHBZgQkh1uEygemOHEQIeLgjB5dDaEfjfcgmtqEs7/8f1uLh5+CyAhNCrMNlAlMXmggBdaEtoC407ZdYh8sKTAixDpcJTF1oIgTUhe4kvA/ZJkyYgIMHD7IOo9M899xzOHDgAOsw7MbD7xUlsIjRcbEPD8ePyyE0daGJEFAX2gKxdaFZoeMifFxWYEKIdbhM4M8//5x1CIS06c0332QdAp8JPH36dNYhENKq6upqqNVq1mHwmcCE8O7GjRvw9PRkHQafTazExEQEBwdj/PjxDtkeNWvMo+Nin6tXr6J///5MY+CyAldWVqKwsJB1GIS0inXyAkAX1gGYM2jQIBQVFTlse8899xwkEonDtkfIvXv34ObGfkpZLofQ165dw9WrVzF69GjWoTg1GkLb7tVXX8UHH3yARx99lGkcXFbgvn37om/fvqzDIMSsM2fOAADz5AU4PQcmhGc//vgjBg4cyDoMAJwOoQHg/Pnz2LhxI9LT01mH4rRoCG27srIy9OvXj3UY/Fbg4cOH486dO/jyyy9Zh0LIfXhIXoDjBAaAZ599FkePHmUdBiEGe/bsYR2CCW6H0KTj0RC6fdLT05Gfn8/VZGxcV2BCeHH79m189913CAsLYx2KCUEk8IULF5CcnMw6DCJiTU1NmDJlCqZOnco6FBOCGUK/9tprCA4Oxttvv806FKdBQ2jhE0QFBoA5c+YgNzcXv/76K+tQiIj897//xdWrV1mHYZFgKjAAXL58GYMGDWIdhtOgCty6AwcOYMOGDVi8eDEmTpzIOhyzBFOBAZgk788//8wwEuLsLl26hI8++gizZ8/mNnkBgVVgveLiYsTExGDq1Kn485//zDocwaIK3LrCwkL4+/uzDqNVgqrAegMHDsSSJUtw+PBhbNmyhXU4xEncvHkTubm5hu95T15AoBXYWEFBAQICAliHIUhUgZtt2rQJeXl5ePTRR7FmzRrW4VhNkBXYmHHyLl68GLt372YYDRGq3377DbNnzxZU8gJOUIGNffHFF8jNzcWDDz6IjRs3sg6He2KtwGfPnoVCoYC/vz9efvll1uHYxakSWO/ChQsYNmwYAODkyZP47LPP4O/vj2HDhmHcuHGMo+OHsydwdXU1bty4ARcXFwwYMAAAsG7dOpw6dQrDhg3Dn/70J0Gc57ZK4+RKSko0GRkZmri4OM0HH3xgeH7Xrl0aABoAmoULFxqe//vf/y6a5wFwFY8jn9+8ebMmIiJCM336dM0nn3xieP769esaZ+KUFZhYx5krsEajEcWNDAXfxCLEHDEkL0AJTIigUQITImB0DsyR3+/UI+/kFeQXqVF1sxbO8D8jkQAP9fRE4BApQsYMwIMeXVmH5FQogTnx69VqfJJdgMEyKYY94oOHej0IZziN02iAqurfceFSOS6q1HgjIgB/6N+LdVhOgxKYA7/fqce6T/6Lp0Y9giEDnfeG9kXF13Ds9CUsf+N/qBI7CJ0DcyDv5BUMlkmdOnkBYMjAvhgskyLv5BXWoTgNSmAO5BepMewRH9ZhdIphj/ggv4j9xNjOghKYA1U3a/FQrwdZh9EpHur1IKpu1rIOw2lQAnNAo8H9DSvlWgzp19XsY5OSSZjWK9uFqH5rcdrMSxIJnKK7zgsuZyckAIJWoKhsBQDg9IaumI7DKFoylnFQhDdUgQWpHNmRZiqyrvJlK6brXpuO7LIT2KSv3htOtLKc0eaNq3/kLqiN9hkVOd1on0bbNt4+6TSUwAJ0eoMflg4/jKKyehR9/SE2TDFOwL/gG6ShqKweX8QrsHR0CvxO1aPo1E5MSkoxWW5p8VIUldXj2CZg6Qe6RC3bhagpf8GSr+tRVFaCFMzBU0aJ+Z/h2nXeDipHduQzKNxUoo3jvu2TzkAJLDgncDwJWDJeN5wOmouUCAVKSvWvy/HiWG1Hu/9AORC/FBH9APQbBNMrX+VImaHdhlS+FEuyFThRBqC0GP+J2IlXggDABxELPgSSDhjOZycZ5sX1QURGPdLluu75fdsnnYHOgQVqw5Su2GD0/aTQcsAXAEahv1UzX5pfTq06DcBo8mrfgZiEYsO3/jKjP3cp12LIlL8YrS1HijW7Jg5DFViQ5Eg5Va8duuoehkpotdO4qh/ull1Goe5LqWyU6WKlxfiP2fVPYJNhqF2PorLDWNLOCIj9KIEFZyyC4xVY+plxQ8qWPy0p8M2JcgCA+oQC/4mQY2w/aCtu9hzsVgJAObK3/AWIn4BRrW0KgFqRYjIiIJ2DhtACNGpJCVIi/TBENwSetKkEbwcBaFcD6UP4F+u38SG+KJsJKQD0m4n0r4sxRD9Ej9iJY0vGAihvsf5YvLJJjqd0y03adBgpEc9oz8V97frxSDvQxQwcWPy3PETPfrbzdli2C1GjizGvbEWblbUjbPznIXy0LITBnp0PDaEJETAaQotRv5lIp7/XOgWqwIQIGCUwIQJGCUyIgFECc6fFBQKGx/T2fc64lUv62hvLJqWjtkccjZpYnFrydb32b7u8oMYXl6gCC421lwzqXG3XJYOAyaWKGw7ct9/T+nUj12JTpLnRgXEsa7GpvSMH0i6UwILkiEsGT+s+T216yeDpDX5Yip04VlaPovGw/PHI7L8AC3TrRzR/tPP0hmewIV57qeOxgafp45UdjBKYUxumtDgHNqmS9l0yaPLZZ/0lg+cvQ41yXD0PLFmg+1hl0FykRFiK8EME6y45HBsq1z13AseTWuzTIUeDWELnwJxq/RzYvksGAQDZc/BUvzlGT3yIqyhGSTaABVZsOmIg+rd8TndVk581oRGHoAR2atpLBkf1w/3JFW/uHlvluBoBlNi6O7qov9PRENqpmb9kUDpWbnKufHqDfoiuHQ5v2KIbrit3YGl2e/ZneqkjXWLY8agCc6rlHTcA3bC6XZfqfYgXEYMh/RQwe8ng6K5YqlvO8Jo8DSm5ftrhdcROpMS3ryKPWnIYS/o9gyFJwKRNO7EEivYETNqJLifkwJLkPLz96rNOMZmZCeVaDJkCfGF02aJGA2z61yFsiKXLCR2BhtAceKinJ6qqf2cdhgOY3u52yJTTSDlles1xVfXveKinJ7MInQ1VYA58degibtxuxLigP7AOpcMdVf6K3t1c8b/PDmYdilOgCsyBkDEDcFGlRlHxNdahdKii4mu4qFIjZMwA1qE4DarAnKAJvoktKIE58vudeuSdvIL8IjWqbtY6xSRgEon2HD9wiBQhYwbQxN4ORgksYhKJBPTfL2x0DkyIgFECEyJglMCECBglMCEC9v8B/NlRVHF/BoYAAAAASUVORK5CYII=;" vertex="1" parent="1">
          <mxGeometry x="569.89" y="615" width="70.19" height="105" as="geometry" />
        </mxCell>
        <mxCell id="uu5v_pjKChr5HiKAVfeQ-255" value="交通预测模型" style="text;html=1;align=center;verticalAlign=middle;resizable=0;points=[];autosize=1;strokeColor=none;fillColor=none;" vertex="1" parent="1">
          <mxGeometry x="557.5" y="720" width="100" height="30" as="geometry" />
        </mxCell>
      </root>
    </mxGraphModel>
  </diagram>
</mxfile>
